<svg width="277" height="45" viewBox="0 0 277 45" fill="none" xmlns="http://www.w3.org/2000/svg">
<path d="M92.0861 28.4406C91.556 30.1331 90.7284 31.5538 89.5906 32.6903C88.4527 33.8269 87.108 34.6793 85.5563 35.2352C84.0047 35.7912 82.2979 36.0753 80.4359 36.0753C77.7206 36.0753 75.3673 35.5317 73.3889 34.4446C71.4106 33.3574 69.8848 31.8132 68.8116 29.7995C67.7384 27.7858 67.2083 25.3768 67.2083 22.5724C67.2083 19.7681 67.7384 17.3591 68.8116 15.3454C69.8848 13.3317 71.4106 11.7874 73.3889 10.7003C75.3673 9.61315 77.6947 9.06958 80.3584 9.06958C82.2462 9.06958 83.953 9.31666 85.4787 9.79846C87.0045 10.2926 88.2975 11.0339 89.3708 12.0469C90.444 13.0599 91.2198 14.32 91.7241 15.8643L86.5261 17.9644C86.0606 16.3708 85.3365 15.2466 84.3667 14.5671C83.397 13.8876 82.1427 13.5541 80.617 13.5541C79.117 13.5541 77.8111 13.9 76.6861 14.5918C75.5612 15.2836 74.6949 16.2966 74.0872 17.6309C73.4794 18.9651 73.1691 20.6205 73.1691 22.5848C73.1691 24.5244 73.4536 26.1674 74.0225 27.514C74.5914 28.8606 75.4319 29.886 76.5439 30.5778C77.6559 31.2696 79.0136 31.6155 80.617 31.6155C82.1169 31.6155 83.4099 31.2326 84.509 30.4666C85.608 29.7007 86.3709 28.5271 86.8235 26.9705L92.0861 28.4406Z" fill="#121E4A"/>
<path d="M119.783 35.6801H113.835L111.546 29.2807H101.021L98.7324 35.6801H92.8621L102.883 9.45264H109.749L119.783 35.6801ZM102.314 25.2286H110.253L106.258 13.7889L102.314 25.2286Z" fill="#121E4A"/>
<path d="M134.924 9.44019C138.028 9.44019 140.471 10.1567 142.243 11.5898C144.014 13.0228 144.906 14.9377 144.906 17.3467C144.906 19.9163 144.014 21.8806 142.243 23.2519C140.471 24.6108 138.04 25.3027 134.963 25.3027L134.381 25.6239H128.472V35.68H122.809V9.44019H134.924ZM134.265 21.4482C135.868 21.4482 137.071 21.1394 137.859 20.5093C138.648 19.8916 139.049 18.928 139.049 17.6309C139.049 16.3337 138.648 15.3701 137.859 14.7524C137.071 14.1347 135.868 13.8135 134.265 13.8135H128.485V21.4482H134.265ZM137.627 22.5971L146.523 35.6676H140.071L132.713 24.1785L137.627 22.5971Z" fill="#121E4A"/>
<path d="M150.065 35.68V9.44019H170.65V13.8505H155.806V20.3734H167.495V24.5861H155.806V31.2573H171.232V35.6676H150.065V35.68Z" fill="#121E4A"/>
<path d="M181.098 31.2696H195.567V35.68H175.357V9.44019H181.098V31.2696Z" fill="#121E4A"/>
<path d="M224.906 35.6801H218.958L216.67 29.2807H206.144L203.856 35.6801H197.985L208.006 9.45264H214.872L224.906 35.6801ZM207.437 25.2286H215.377L211.381 13.7889L207.437 25.2286Z" fill="#121E4A"/>
<path d="M227.945 35.68V9.44019H239.97C243.293 9.44019 245.75 10.0579 247.327 11.3056C248.905 12.5534 249.694 14.3076 249.694 16.5931C249.694 18.0015 249.254 19.2369 248.362 20.324C247.47 21.4112 246.177 22.103 244.457 22.3871V22.4242C246.37 22.6836 247.845 23.3754 248.866 24.4873C249.888 25.5992 250.405 26.921 250.405 28.4653C250.405 30.7137 249.551 32.4803 247.845 33.7528C246.138 35.0252 243.655 35.6553 240.384 35.6553H227.945V35.68ZM233.518 20.4599H239.22C242.246 20.4599 243.759 19.3357 243.759 17.0873C243.759 14.8389 242.246 13.7147 239.22 13.7147H233.518V20.4599ZM233.518 31.5414H239.879C241.431 31.5414 242.582 31.2326 243.332 30.6272C244.082 30.0219 244.457 29.1694 244.457 28.0823C244.457 26.9704 244.082 26.118 243.332 25.5374C242.582 24.9568 241.431 24.6603 239.879 24.6603H233.518V31.5414Z" fill="#121E4A"/>
<path d="M264.887 9.04492C267.382 9.04492 269.567 9.4526 271.455 10.2803C273.343 11.0957 274.946 12.3187 276.278 13.9371L273.071 17.4703C271.934 16.099 270.692 15.0736 269.348 14.4312C268.003 13.7765 266.438 13.4553 264.667 13.4553C263.503 13.4553 262.533 13.6035 261.77 13.8877C261.008 14.1842 260.452 14.5671 260.102 15.0366C259.753 15.5184 259.585 16.0496 259.585 16.6302C259.585 17.3468 259.883 17.9521 260.464 18.4339C261.046 18.9281 262.042 19.3234 263.464 19.6446L268.585 20.7565C271.3 21.3371 273.253 22.2019 274.429 23.3632C275.606 24.5121 276.201 26.0069 276.201 27.8353C276.201 29.5525 275.735 31.035 274.791 32.2704C273.847 33.5057 272.528 34.4446 270.835 35.087C269.141 35.7418 267.201 36.063 265.016 36.063C263.102 36.063 261.344 35.8406 259.753 35.4083C258.163 34.9759 256.741 34.3705 255.486 33.6046C254.232 32.8386 253.198 31.9492 252.37 30.9361L255.616 27.2423C256.249 28.0947 257.038 28.8483 257.982 29.5031C258.926 30.1702 259.999 30.689 261.201 31.072C262.404 31.455 263.671 31.6527 265.003 31.6527C266.141 31.6527 267.098 31.5291 267.899 31.2697C268.688 31.0226 269.283 30.6643 269.684 30.1949C270.085 29.7254 270.291 29.1695 270.291 28.5024C270.291 27.8106 270.046 27.2299 269.567 26.7358C269.076 26.2416 268.184 25.871 266.878 25.5992L261.305 24.4009C259.702 24.0303 258.318 23.5485 257.167 22.9555C256.016 22.3625 255.137 21.5965 254.542 20.6453C253.948 19.7064 253.65 18.5822 253.65 17.285C253.65 15.7161 254.09 14.3201 254.982 13.0723C255.874 11.8246 257.154 10.8362 258.835 10.1074C260.503 9.41554 262.52 9.04492 264.887 9.04492Z" fill="#121E4A"/>
<path d="M25.1203 44.1796L4.16032 24.1538C-1.38677 18.854 -1.38677 10.2186 4.16032 4.91873C9.70741 -0.381114 18.7457 -0.381114 24.2928 4.91873L37.5592 17.5939L34.6499 20.3612L21.3964 7.68602C17.4397 3.90571 11.0134 3.90571 7.06963 7.68602C3.1259 11.4663 3.11297 17.6062 7.06963 21.3742L28.0296 41.4L25.1203 44.1796Z" fill="#121E4A"/>
<path d="M46.0803 24.1537L33.7448 35.9393L12.5908 15.7406L15.4872 12.9733L33.7318 30.4048L43.1709 21.3864C47.1276 17.6061 47.1276 11.4661 43.1709 7.69819L46.0673 4.93091C51.6273 10.2184 51.6273 18.8538 46.0803 24.1537Z" fill="#121E4A"/>
</svg>
